<svg xmlns="http://www.w3.org/2000/svg" viewBox="0 0 100 400" width="100" height="400">
  <!-- roots -->
  <rect x="18" y="388" width="8" height="12" fill="#6a4020"/>
  <rect x="54" y="388" width="8" height="12" fill="#6a4020"/>
  <rect x="6"  y="392" width="16" height="8" fill="#5a3010"/>
  <rect x="58" y="392" width="16" height="8" fill="#5a3010"/>
  <!-- trunk -->
  <rect x="22" y="188" width="36" height="200" fill="#7a5228"/>
  <rect x="28" y="188" width="8"  height="200" fill="#9a7040"/>
  <rect x="22" y="188" width="6"  height="200" fill="#6a4520"/>
  <rect x="52" y="188" width="6"  height="200" fill="#6a4520"/>
  <!-- trunk taper -->
  <rect x="24" y="180" width="32" height="10" fill="#7a5228"/>
  <rect x="26" y="172" width="28" height="10" fill="#7a5228"/>
  <!-- scaffold branches -->
  <rect x="6"  y="162" width="20" height="8" fill="#7a5228"/>
  <rect x="0"  y="158" width="12" height="8" fill="#6a4520"/>
  <rect x="54" y="162" width="20" height="8" fill="#7a5228"/>
  <rect x="68" y="158" width="12" height="8" fill="#6a4520"/>
  <rect x="26" y="156" width="28" height="8" fill="#7a5228"/>
  <rect x="28" y="148" width="24" height="8" fill="#6a4520"/>
  <!-- canopy bottom -->
  <rect x="-16" y="124" width="112" height="24" fill="#2d6e24"/>
  <rect x="-20" y="136" width="120" height="16" fill="#3a8030"/>
  <rect x="-16" y="144" width="112" height="8"  fill="#2d6e24"/>
  <!-- bottom lobes -->
  <rect x="-24" y="128" width="16" height="16" fill="#3a8030"/>
  <rect x="-4"  y="116" width="16" height="24" fill="#2d6e24"/>
  <rect x="24"  y="112" width="16" height="28" fill="#3a8030"/>
  <rect x="52"  y="116" width="16" height="24" fill="#2d6e24"/>
  <rect x="76"  y="124" width="16" height="20" fill="#3a8030"/>
  <rect x="92"  y="128" width="16" height="16" fill="#2d6e24"/>
  <!-- mid canopy -->
  <rect x="-12" y="96"  width="104" height="28" fill="#3a8030"/>
  <rect x="-16" y="108" width="112" height="16" fill="#2d6e24"/>
  <!-- mid lobes -->
  <rect x="-16" y="92"  width="16" height="20" fill="#3a8030"/>
  <rect x="4"   y="84"  width="20" height="28" fill="#2d6e24"/>
  <rect x="32"  y="80"  width="16" height="32" fill="#3a8030"/>
  <rect x="56"  y="84"  width="20" height="28" fill="#2d6e24"/>
  <rect x="80"  y="92"  width="16" height="20" fill="#3a8030"/>
  <!-- upper canopy -->
  <rect x="-4"  y="68"  width="88" height="24" fill="#4a9040"/>
  <rect x="0"   y="80"  width="80" height="12" fill="#3a8030"/>
  <rect x="-4"  y="64"  width="16" height="20" fill="#4a9040"/>
  <rect x="16"  y="56"  width="20" height="28" fill="#3a8030"/>
  <rect x="44"  y="52"  width="20" height="32" fill="#4a9040"/>
  <rect x="64"  y="60"  width="20" height="24" fill="#3a8030"/>
  <rect x="72"  y="68"  width="16" height="20" fill="#4a9040"/>
  <!-- crown -->
  <rect x="16"  y="40"  width="52" height="16" fill="#5aa850"/>
  <rect x="24"  y="32"  width="36" height="12" fill="#4a9040"/>
  <rect x="30"  y="28"  width="24" height="8"  fill="#5aa850"/>
  <rect x="28"  y="24"  width="16" height="16" fill="#5aa850"/>
  <rect x="52"  y="32"  width="16" height="12" fill="#4a9040"/>
  <!-- highlights -->
  <rect x="-16" y="132" width="8" height="8" fill="#6aba58"/>
  <rect x="8"   y="84"  width="8" height="8" fill="#6aba58"/>
  <rect x="36"  y="48"  width="8" height="8" fill="#7aca68"/>
  <rect x="68"  y="92"  width="8" height="8" fill="#6aba58"/>
  <!-- shadow interior -->
  <rect x="4"   y="140" width="28" height="8" fill="#1e5018"/>
  <rect x="48"  y="136" width="24" height="8" fill="#1e5018"/>
  <rect x="16"  y="104" width="20" height="8" fill="#1e5018"/>
  <!-- figs green -->
  <rect x="10"  y="148" width="6" height="8" fill="#7a9838"/>
  <rect x="32"  y="144" width="6" height="8" fill="#6a8830"/>
  <rect x="56"  y="148" width="6" height="8" fill="#7a9838"/>
  <rect x="72"  y="144" width="6" height="8" fill="#6a8830"/>
  <!-- figs purple -->
  <rect x="24"  y="128" width="6" height="8" fill="#6a4870"/>
  <rect x="26"  y="122" width="4" height="4" fill="#7a5880"/>
  <rect x="60"  y="124" width="6" height="8" fill="#6a4870"/>
</svg>
