<svg xmlns="http://www.w3.org/2000/svg" viewBox="0 0 60 196" width="60" height="196">
  <!-- antlers left -->
  <rect x="16" y="0"  width="4" height="4"  fill="#8a6838"/>
  <rect x="8"  y="4"  width="4" height="8"  fill="#7a5828"/>
  <rect x="4"  y="8"  width="4" height="4"  fill="#7a5828"/>
  <rect x="12" y="12" width="4" height="12" fill="#8a6838"/>
  <rect x="8"  y="16" width="4" height="4"  fill="#7a5828"/>
  <rect x="16" y="20" width="4" height="4"  fill="#7a5828"/>
  <rect x="20" y="16" width="4" height="8"  fill="#8a6838"/>
  <!-- antlers right -->
  <rect x="32" y="0"  width="4" height="4"  fill="#8a6838"/>
  <rect x="40" y="4"  width="4" height="8"  fill="#7a5828"/>
  <rect x="44" y="8"  width="4" height="4"  fill="#7a5828"/>
  <rect x="36" y="12" width="4" height="12" fill="#8a6838"/>
  <rect x="40" y="16" width="4" height="4"  fill="#7a5828"/>
  <rect x="32" y="20" width="4" height="4"  fill="#7a5828"/>
  <rect x="28" y="16" width="4" height="8"  fill="#8a6838"/>
  <!-- head -->
  <rect x="16" y="24" width="20" height="16" fill="#c89860"/>
  <rect x="12" y="28" width="28" height="12" fill="#d8a870"/>
  <rect x="10" y="36" width="12" height="8"  fill="#d8a870"/>
  <rect x="8"  y="40" width="12" height="4"  fill="#c89060"/>
  <rect x="8"  y="42" width="6"  height="2"  fill="#383030"/>
  <!-- eye -->
  <rect x="28" y="28" width="6"  height="6"  fill="#181010"/>
  <rect x="29" y="29" width="4"  height="4"  fill="#303060"/>
  <rect x="30" y="29" width="2"  height="2"  fill="#f0f0f0"/>
  <!-- ear -->
  <rect x="36" y="22" width="8"  height="10" fill="#d8a870"/>
  <rect x="37" y="23" width="5"  height="7"  fill="#e8b888"/>
  <!-- neck -->
  <rect x="16" y="40" width="20" height="16" fill="#c89860"/>
  <!-- body -->
  <rect x="4"  y="56" width="48" height="52" fill="#c89060"/>
  <rect x="0"  y="60" width="56" height="44" fill="#d8a070"/>
  <rect x="2"  y="58" width="52" height="48" fill="#c89060"/>
  <!-- belly -->
  <rect x="10" y="68" width="36" height="32" fill="#e8c090"/>
  <!-- spots -->
  <rect x="12" y="62" width="4"  height="4"  fill="#e0b880"/>
  <rect x="24" y="60" width="4"  height="4"  fill="#e0b880"/>
  <rect x="36" y="64" width="4"  height="4"  fill="#e0b880"/>
  <rect x="18" y="76" width="4"  height="4"  fill="#e0b880"/>
  <rect x="32" y="80" width="4"  height="4"  fill="#e0b880"/>
  <!-- front legs -->
  <rect x="8"  y="108" width="12" height="44" fill="#b88050"/>
  <rect x="10" y="108" width="8"  height="44" fill="#c89060"/>
  <rect x="36" y="108" width="12" height="44" fill="#b88050"/>
  <rect x="38" y="108" width="8"  height="44" fill="#c89060"/>
  <!-- hooves front -->
  <rect x="8"  y="152" width="12" height="8"  fill="#383028"/>
  <rect x="36" y="152" width="12" height="8"  fill="#383028"/>
  <!-- back legs -->
  <rect x="4"  y="112" width="12" height="40" fill="#a87040"/>
  <rect x="40" y="112" width="12" height="40" fill="#a87040"/>
  <!-- hooves back -->
  <rect x="4"  y="152" width="12" height="8"  fill="#282018"/>
  <rect x="40" y="152" width="12" height="8"  fill="#282018"/>
  <!-- tail -->
  <rect x="48" y="64"  width="8"  height="14" fill="#f0e0c0"/>
  <rect x="50" y="60"  width="6"  height="6"  fill="#f0e8d0"/>
</svg>
