<svg xmlns="http://www.w3.org/2000/svg" viewBox="0 0 76 60" width="76" height="60">
  <!-- body -->
  <rect x="4"  y="10" width="40" height="32" fill="#4a8c48"/>
  <rect x="2"  y="16" width="44" height="28" fill="#5aac58"/>
  <rect x="8"  y="14" width="32" height="20" fill="#c8e8b0"/>
  <rect x="10" y="16" width="28" height="16" fill="#d8f0c0"/>
  <!-- eyes -->
  <rect x="2"  y="2"  width="12" height="10" fill="#5aac58"/>
  <rect x="34" y="2"  width="12" height="10" fill="#5aac58"/>
  <rect x="4"  y="4"  width="8"  height="8"  fill="#f8d820"/>
  <rect x="36" y="4"  width="8"  height="8"  fill="#f8d820"/>
  <rect x="6"  y="6"  width="4"  height="4"  fill="#181818"/>
  <rect x="38" y="6"  width="4"  height="4"  fill="#181818"/>
  <rect x="7"  y="7"  width="2"  height="2"  fill="#f0f0f0"/>
  <rect x="39" y="7"  width="2"  height="2"  fill="#f0f0f0"/>
  <!-- nostrils -->
  <rect x="18" y="10" width="4" height="2" fill="#3a7838"/>
  <rect x="26" y="10" width="4" height="2" fill="#3a7838"/>
  <!-- mouth -->
  <rect x="8"  y="28" width="32" height="2" fill="#3a7838"/>
  <!-- stripe -->
  <rect x="22" y="10" width="4" height="28" fill="#3a8838"/>
  <!-- front legs -->
  <rect x="-4" y="24" width="8"  height="6"  fill="#4a8c48"/>
  <rect x="44" y="24" width="8"  height="6"  fill="#4a8c48"/>
  <rect x="-8" y="30" width="12" height="4"  fill="#4a8c48"/>
  <rect x="44" y="30" width="12" height="4"  fill="#4a8c48"/>
  <!-- back legs -->
  <rect x="-8" y="34" width="12" height="6"  fill="#4a8c48"/>
  <rect x="44" y="34" width="12" height="6"  fill="#4a8c48"/>
  <rect x="-16" y="40" width="20" height="4" fill="#5aac58"/>
  <rect x="44"  y="40" width="20" height="4" fill="#5aac58"/>
  <!-- toes -->
  <rect x="-20" y="44" width="6" height="4" fill="#4a8c48"/>
  <rect x="-14" y="44" width="6" height="4" fill="#4a8c48"/>
  <rect x="-8"  y="44" width="6" height="4" fill="#4a8c48"/>
  <rect x="44"  y="44" width="6" height="4" fill="#4a8c48"/>
  <rect x="50"  y="44" width="6" height="4" fill="#4a8c48"/>
  <rect x="56"  y="44" width="6" height="4" fill="#4a8c48"/>
</svg>
