<svg xmlns="http://www.w3.org/2000/svg" viewBox="0 0 40 52" width="40" height="52">
  <!-- antennae -->
  <rect x="10" y="0"  width="4" height="4" fill="#303830"/>
  <rect x="14" y="4"  width="4" height="4" fill="#303830"/>
  <rect x="22" y="0"  width="4" height="4" fill="#303830"/>
  <rect x="18" y="4"  width="4" height="4" fill="#303830"/>
  <!-- head -->
  <rect x="10" y="8"  width="16" height="4" fill="#383838"/>
  <rect x="8"  y="12" width="20" height="4" fill="#484848"/>
  <rect x="10" y="8"  width="4"  height="4" fill="#202020"/>
  <rect x="22" y="8"  width="4"  height="4" fill="#202020"/>
  <rect x="11" y="9"  width="2"  height="2" fill="#60a0e0"/>
  <rect x="23" y="9"  width="2"  height="2" fill="#60a0e0"/>
  <!-- pronotum -->
  <rect x="6"  y="16" width="24" height="8" fill="#404848"/>
  <rect x="8"  y="14" width="20" height="4" fill="#505858"/>
  <!-- elytra -->
  <rect x="4"  y="24" width="12" height="16" fill="#3a5840"/>
  <rect x="20" y="24" width="12" height="16" fill="#3a5840"/>
  <rect x="6"  y="26" width="8"  height="4"  fill="#4a7850"/>
  <rect x="22" y="26" width="8"  height="4"  fill="#4a7850"/>
  <rect x="16" y="24" width="4"  height="16" fill="#282828"/>
  <rect x="6"  y="24" width="4"  height="4"  fill="#5a9860"/>
  <rect x="22" y="24" width="4"  height="4"  fill="#5a9860"/>
  <!-- legs -->
  <rect x="0"  y="20" width="4"  height="4"  fill="#303830"/>
  <rect x="32" y="20" width="4"  height="4"  fill="#303830"/>
  <rect x="0"  y="28" width="4"  height="4"  fill="#303830"/>
  <rect x="32" y="28" width="4"  height="4"  fill="#303830"/>
  <rect x="2"  y="36" width="4"  height="4"  fill="#303830"/>
  <rect x="30" y="36" width="4"  height="4"  fill="#303830"/>
  <!-- abdomen tip -->
  <rect x="8"  y="40" width="20" height="4"  fill="#383838"/>
</svg>
