<svg xmlns="http://www.w3.org/2000/svg" viewBox="0 0 28 44" width="28" height="44">
  <rect x="0" y="2" width="4" height="4" fill="#4a8c3a"/>
  <rect x="0" y="6" width="4" height="4" fill="#5aac48"/>
  <rect x="0" y="10" width="4" height="4" fill="#5aac48"/>
  <rect x="0" y="14" width="4" height="4" fill="#3a7030"/>
  <rect x="0" y="18" width="4" height="4" fill="#2e5828"/>
  <rect x="6" y="0" width="4" height="4" fill="#5aac48"/>
  <rect x="6" y="4" width="4" height="4" fill="#5aac48"/>
  <rect x="6" y="8" width="4" height="4" fill="#4a8c3a"/>
  <rect x="6" y="12" width="4" height="4" fill="#3a7030"/>
  <rect x="6" y="16" width="4" height="4" fill="#3a7030"/>
  <rect x="6" y="20" width="4" height="4" fill="#2e5828"/>
  <rect x="12" y="4" width="4" height="4" fill="#6abc58"/>
  <rect x="12" y="8" width="4" height="4" fill="#5aac48"/>
  <rect x="12" y="12" width="4" height="4" fill="#4a8c3a"/>
  <rect x="12" y="16" width="4" height="4" fill="#3a7030"/>
  <rect x="12" y="20" width="4" height="4" fill="#2e5828"/>
  <rect x="18" y="6" width="4" height="4" fill="#5aac48"/>
  <rect x="18" y="10" width="4" height="4" fill="#4a8c3a"/>
  <rect x="18" y="14" width="4" height="4" fill="#3a7030"/>
  <rect x="18" y="18" width="4" height="4" fill="#2e5828"/>
  <rect x="0" y="22" width="24" height="4" fill="#2e5828"/>
</svg>
