<svg xmlns="http://www.w3.org/2000/svg" viewBox="0 0 40 52" width="40" height="52">
  <!-- log base -->
  <rect x="0" y="42" width="36" height="8" fill="#5a3820"/>
  <rect x="2" y="40" width="32" height="4" fill="#6a4830"/>
  <!-- shelf 1 bottom -->
  <rect x="6" y="30" width="4" height="4" fill="#c8501a"/>
  <rect x="10" y="28" width="4" height="4" fill="#d86028"/>
  <rect x="14" y="26" width="4" height="4" fill="#d86028"/>
  <rect x="18" y="26" width="4" height="4" fill="#e87038"/>
  <rect x="22" y="28" width="4" height="4" fill="#d86028"/>
  <rect x="6"  y="34" width="4" height="4" fill="#e8d8b0"/>
  <rect x="10" y="32" width="4" height="4" fill="#f8e8c0"/>
  <rect x="14" y="30" width="4" height="4" fill="#f8e8c0"/>
  <rect x="18" y="30" width="4" height="4" fill="#f0e0b8"/>
  <rect x="22" y="32" width="4" height="4" fill="#e8d8b0"/>
  <!-- shelf 2 middle -->
  <rect x="10" y="18" width="4" height="4" fill="#c8501a"/>
  <rect x="14" y="16" width="4" height="4" fill="#d86028"/>
  <rect x="18" y="16" width="4" height="4" fill="#e87038"/>
  <rect x="22" y="18" width="4" height="4" fill="#d86028"/>
  <rect x="10" y="22" width="4" height="4" fill="#f8e8c0"/>
  <rect x="14" y="20" width="4" height="4" fill="#f8e8c0"/>
  <rect x="18" y="20" width="4" height="4" fill="#f0e0b8"/>
  <rect x="22" y="22" width="4" height="4" fill="#e8d8b0"/>
  <!-- shelf 3 top -->
  <rect x="14" y="8"  width="4" height="4" fill="#d86028"/>
  <rect x="18" y="8"  width="4" height="4" fill="#e87038"/>
  <rect x="14" y="12" width="4" height="4" fill="#f0e0b8"/>
  <rect x="18" y="12" width="4" height="4" fill="#e8d8b0"/>
</svg>
